# ProBuilder 4.5.0
# https://unity3d.com/unity/features/worldbuilding/probuilder
# 3/29/2021 12:18:52 PM

mtllib ./Icosphere.mtl
o Icosphere

g Icosphere
v 0.5257311 0.8506508 0
v 0.809017 0.5 0.309017
v 0.309017 0.8090169 0.5
v 0.8506508 0 0.5257311
v 0.5 0.3090169 0.809017
v 0 0.5257311 0.8506508
v 0 1 0
v -0.309017 0.8090169 0.5
v -0.5257311 0.8506508 0
v 0.309017 0.8090169 -0.5
v -0.309017 0.8090169 -0.5
v 0 0.5257311 -0.8506508
v 0.809017 0.5 -0.309017
v 0.5 0.3090169 -0.809017
v 0.8506508 0 -0.5257311
v 1 0 0
v -0.809017 0.5 0.309017
v -0.5 0.3090169 0.809017
v -0.8506508 0 0.5257311
v 0 0 1
v 0 0 -1
v -0.5 0.3090169 -0.809017
v -0.809017 0.5 -0.309017
v -0.8506508 0 -0.5257311
v -1 0 0
v 0.5 0 -0.809017
v -0.5 0 -0.809017
v 0.5 0 0.809017
v -0.5 0 0.809017

vt -0.5257311 0
vt -0.809017 0.309017
vt -0.309017 0.5
vt -0.309017 1.5
vt -0.5257311 1
vt -0.809017 1.309017
vt 0.809017 1.5
vt 0.5 1.309017
vt 0.309017 1.809017
vt 0 1.525731
vt 0 0
vt 0 0.8506508
vt 0.309017 0.5
vt 0.5257311 0
vt -0.309017 -0.5
vt 0.309017 -0.5
vt 0 -0.8506508
vt -0.809017 -0.309017
vt -0.309017 1.809017
vt -0.5 1.309017
vt -0.809017 1.5
vt 0.309017 1.5
vt 0.809017 1.309017
vt 0.5257311 1
vt 0 1.850651
vt 0 1
vt 0.809017 0.309017
vt 0.809017 -0.309017
vt -0.8506508 1
vt -0.5 1
vt 0.8506508 1
vt 0.5 1
vt -0.1545085 1

vn 0.5831288 0.7487835 0.3150939
vn 0.7487835 0.3150939 0.5831288
vn 0.5773503 0.5773503 0.5773503
vn 0.3150939 0.5831288 0.7487835
vn 0.2680349 0.9435222 0.1947388
vn 0 0.7778676 0.6284283
vn 0 0.9341723 0.3568222
vn -0.2680349 0.9435222 0.1947388
vn 0.2680349 0.9435222 -0.1947388
vn -0.2680349 0.9435222 -0.1947388
vn 0 0.9341723 -0.3568222
vn 0 0.7778676 -0.6284283
vn 0.5831288 0.7487835 -0.3150939
vn 0.3150939 0.5831288 -0.7487835
vn 0.5773503 0.5773503 -0.5773503
vn 0.7487835 0.3150939 -0.5831288
vn 0.7778675 0.6284284 0
vn 0.9435222 0.1947387 -0.2680349
vn 0.9341724 0.3568221 0
vn 0.9435222 0.1947387 0.2680349
vn -0.5831288 0.7487835 0.3150939
vn -0.3150939 0.5831288 0.7487835
vn -0.5773503 0.5773503 0.5773503
vn -0.7487835 0.3150939 0.5831288
vn 0.1947387 0.2680349 0.9435222
vn 0.1947387 0.2680349 -0.9435222
vn -0.3150939 0.5831288 -0.7487835
vn -0.5831288 0.7487835 -0.3150939
vn -0.5773503 0.5773503 -0.5773503
vn -0.7487835 0.3150938 -0.5831288
vn -0.1947387 0.2680349 0.9435222
vn -0.1947387 0.2680349 -0.9435222
vn -0.9435222 0.1947387 0.2680349
vn -0.9435222 0.1947387 -0.2680349
vn -0.9341724 0.3568221 0
vn -0.7778675 0.6284284 0
vn 0.6284284 0 -0.7778675
vn 0.3568221 0 -0.9341724
vn -0.6284284 0 -0.7778675
vn -0.3568221 0 -0.9341724
vn 0.6284284 0 0.7778675
vn 0.3568221 0 0.9341724
vn -0.6284284 0 0.7778675
vn -0.3568221 0 0.9341724

usemtl DefaultMaterial
f 3/3/1 2/2/1 1/1/1
f 5/6/2 4/5/2 2/4/2
f 3/9/3 5/8/3 2/7/3
f 6/10/4 5/8/4 3/9/4
f 7/11/5 3/3/5 1/1/5
f 8/13/6 6/12/6 3/3/6
f 7/11/7 8/13/7 3/3/7
f 9/14/8 8/13/8 7/11/8
f 10/15/9 7/11/9 1/1/9
f 11/16/10 9/14/10 7/11/10
f 10/15/11 11/16/11 7/11/11
f 12/17/12 11/16/12 10/15/12
f 13/18/13 10/15/13 1/1/13
f 14/20/14 12/10/14 10/19/14
f 13/21/15 14/20/15 10/19/15
f 15/24/16 14/23/16 13/22/16
f 2/4/17 13/22/17 1/25/17
f 16/26/18 15/24/18 13/22/18
f 2/4/19 16/26/19 13/22/19
f 4/5/20 16/26/20 2/4/20
f 17/27/21 8/13/21 9/14/21
f 18/20/22 6/10/22 8/19/22
f 17/21/23 18/20/23 8/19/23
f 19/24/24 18/23/24 17/22/24
f 20/26/25 5/8/25 6/10/25
f 5/8/41 28/33/41 4/31/41
f 20/26/42 28/33/42 5/8/42
f 15/29/37 26/30/37 14/20/37
f 21/26/26 12/10/26 14/20/26
f 14/20/38 26/30/38 21/26/38
f 22/8/27 11/9/27 12/10/27
f 23/28/28 9/14/28 11/16/28
f 22/8/29 23/7/29 11/9/29
f 24/5/30 23/4/30 22/6/30
f 19/29/43 29/30/43 18/20/43
f 18/20/44 29/30/44 20/26/44
f 6/10/31 18/20/31 20/26/31
f 22/8/39 27/32/39 24/31/39
f 21/26/40 27/32/40 22/8/40
f 12/10/32 21/26/32 22/8/32
f 17/22/33 25/26/33 19/24/33
f 23/4/34 24/5/34 25/26/34
f 17/22/35 23/4/35 25/26/35
f 9/25/36 23/4/36 17/22/36

